<svg version="1.1" xmlns="http://www.w3.org/2000/svg" xmlns:xlink="http://www.w3.org/1999/xlink" x="0px" y="0px" viewBox="0 0 195 48.1" enable-background="new 0 0 195 48.1" xml:space="preserve">
<g>
    <path fill="#FED100" d="M76.8,29.4c0,10.3-8.4,18.7-18.7,18.7c-10.3,0-18.7-8.4-18.7-18.7
		c0-10.3,8.4-18.7,18.7-18.7C68.4,10.7,76.8,19.1,76.8,29.4"></path>
    <path fill="#0097DB" d="M58.1,36.7c-4.2-0.1-7.4-3.2-7.4-7.4c0-4.1,3.4-7.2,7.6-7.2c3.9,0.1,7.3,3.1,7.2,7.3
		C65.5,33.6,62.2,36.7,58.1,36.7z M54.1,29.4c0,2.4,1.7,4.1,4,4.1c2.3,0,4-1.8,4-4.1c0-2.4-1.7-4.2-4-4.2
		C55.8,25.2,54.1,27,54.1,29.4z"></path>
</g>
                        <g>
                            <path fill="#FED100" d="M37.4,18.7c0,10.3-8.4,18.7-18.7,18.7C8.4,37.4,0,29,0,18.7C0,8.4,8.4,0,18.7,0
		C29,0,37.4,8.4,37.4,18.7"></path>
                            <path fill="#0097DB" d="M12.5,11.7c4.1,0,8.2,0,12.4,0c0,1,0,2,0,3c-1.5,0-3,0-4.5,0c0,3.7,0,7.3,0,10.9
		c-1.1,0-2.2,0-3.4,0c0-3.6,0-7.2,0-10.9c-1.5,0-3,0-4.5,0C12.5,13.7,12.5,12.8,12.5,11.7z"></path>
                        </g>
                        <g>
                            <path fill="#FED100" d="M155.6,29.4c0,10.3-8.4,18.7-18.7,18.7c-10.3,0-18.7-8.4-18.7-18.7
		c0-10.3,8.4-18.7,18.7-18.7C147.2,10.7,155.6,19.1,155.6,29.4"></path>
                            <path id="XMLID_93_" fill="#0097DB" d="M135.2,22.4c1.1,0,2.3,0,3.4,0c0,4.6,0,9.3,0,13.9c-1.1,0-2.2,0-3.4,0
		C135.2,31.7,135.2,27.1,135.2,22.4z"></path>
                        </g>
                        <g>
                            <path fill="#FED100" d="M116.2,18.7c0,10.3-8.4,18.7-18.7,18.7c-10.3,0-18.7-8.4-18.7-18.7C78.8,8.4,87.2,0,97.5,0
		C107.8,0,116.2,8.4,116.2,18.7"></path>
                            <path fill="#0097DB" d="M100.7,11.7c0,2.7,0,5.5,0,8.2l-6.7-7.7c-0.1-0.1-0.2-0.2-0.2-0.3c0,0,0,0,0-0.1l-0.1-0.2
		h-1.4l0,0c-0.5,0-0.9,0-1.4,0c0,4.7,0,9.3,0,13.9c1.2,0,2.3,0,3.4,0c0-2.7,0-5.3,0-8l1.6,1.8c0.4,0.4,0.7,0.8,1.1,1.3
		c1.3,1.5,2.7,3.1,4.1,4.6c0,0,0,0,0,0l0.2,0.3h1.4l0,0c0.5,0,0.9,0,1.4,0c0-4.7,0-9.3,0-13.9C103,11.7,101.9,11.7,100.7,11.7z"></path>
                        </g>
                        <g>
                            <path fill="#FED100" d="M195,18.7c0,10.3-8.4,18.7-18.7,18.7c-10.3,0-18.7-8.4-18.7-18.7c0-10.3,8.4-18.7,18.7-18.7
		C186.6,0,195,8.4,195,18.7"></path>
                            <path fill="#0097DB" d="M179.7,20.8c-1,1.9-3.5,2.6-5.4,1.3c-1.2-0.8-1.8-2.1-1.8-3.5c0-1.4,0.7-2.8,1.8-3.5
		c1.9-1.3,4.4-0.6,5.4,1.3h3.7c-0.1-0.2-0.1-0.4-0.2-0.6c-1.2-3.5-4.9-5.1-8.4-4.4c-3.1,0.6-5.4,3.2-5.8,6.2c0,0.3,0,0.6,0,0.9h0
		l0,0l0,0h0c0,0.3,0,0.6,0,0.9c0.3,3.1,2.6,5.6,5.8,6.2c3.4,0.7,7.2-0.8,8.4-4.4c0.1-0.2,0.1-0.4,0.2-0.6H179.7z"></path>
                        </g>
                        <rect fill="none" width="195" height="48"></rect>
</svg>